<?xml version="1.0" encoding="utf-8" ?>
<svg baseProfile="tiny" height="1024" version="1.2" width="1536" xmlns="http://www.w3.org/2000/svg" xmlns:ev="http://www.w3.org/2001/xml-events" xmlns:xlink="http://www.w3.org/1999/xlink"><defs /><path d="M 727,580 L 726,581 L 725,581 L 724,582 L 723,582 L 721,584 L 720,584 L 718,586 L 718,587 L 713,592 L 713,593 L 710,596 L 710,597 L 706,601 L 706,602 L 703,605 L 703,606 L 699,610 L 699,611 L 695,615 L 695,616 L 692,619 L 692,620 L 688,624 L 688,625 L 684,629 L 684,630 L 680,634 L 680,635 L 675,640 L 675,641 L 672,644 L 672,645 L 671,646 L 671,648 L 670,649 L 670,656 L 671,657 L 671,658 L 672,659 L 672,660 L 677,665 L 678,665 L 679,666 L 681,666 L 682,667 L 688,667 L 689,666 L 691,666 L 692,665 L 693,665 L 695,663 L 696,663 L 698,661 L 698,660 L 702,656 L 702,655 L 706,651 L 706,650 L 710,646 L 710,645 L 713,642 L 713,641 L 717,637 L 717,636 L 720,633 L 720,632 L 724,628 L 724,627 L 727,624 L 727,623 L 731,619 L 731,618 L 734,615 L 734,614 L 738,610 L 738,609 L 741,606 L 741,605 L 743,603 L 743,602 L 744,601 L 744,599 L 745,598 L 745,591 L 744,590 L 744,589 L 736,581 L 735,581 L 734,580 Z" fill="black" stroke="none" /><path d="M 575,482 L 574,483 L 565,483 L 564,484 L 559,484 L 558,485 L 554,485 L 553,486 L 550,486 L 549,487 L 547,487 L 546,488 L 544,488 L 543,489 L 541,489 L 540,490 L 538,490 L 537,491 L 535,491 L 534,492 L 533,492 L 532,493 L 530,493 L 529,494 L 528,494 L 527,495 L 526,495 L 525,496 L 524,496 L 523,497 L 522,497 L 520,499 L 519,499 L 518,500 L 517,500 L 515,502 L 514,502 L 512,504 L 511,504 L 509,506 L 508,506 L 504,510 L 503,510 L 496,517 L 495,517 L 494,518 L 494,519 L 493,520 L 492,520 L 426,586 L 426,587 L 417,596 L 417,597 L 412,602 L 412,603 L 409,606 L 409,607 L 406,610 L 406,611 L 403,614 L 403,615 L 401,617 L 401,618 L 399,620 L 399,621 L 397,623 L 397,624 L 396,625 L 396,626 L 394,628 L 394,629 L 393,630 L 393,631 L 392,632 L 392,633 L 391,634 L 391,635 L 389,637 L 389,638 L 388,639 L 388,640 L 387,641 L 387,642 L 386,643 L 386,644 L 385,645 L 385,647 L 384,648 L 384,649 L 383,650 L 383,651 L 382,652 L 382,653 L 381,654 L 381,656 L 380,657 L 380,659 L 379,660 L 379,661 L 378,662 L 378,664 L 377,665 L 377,667 L 376,668 L 376,670 L 375,671 L 375,673 L 374,674 L 374,677 L 373,678 L 373,680 L 372,681 L 372,684 L 371,685 L 371,689 L 370,690 L 370,693 L 369,694 L 369,699 L 368,700 L 368,705 L 367,706 L 367,712 L 366,713 L 366,725 L 365,726 L 365,750 L 366,751 L 366,759 L 367,760 L 367,766 L 368,767 L 368,772 L 369,773 L 369,777 L 370,778 L 370,781 L 371,782 L 371,785 L 372,786 L 372,789 L 373,790 L 373,793 L 374,794 L 374,796 L 375,797 L 375,799 L 376,800 L 376,802 L 377,803 L 377,805 L 378,806 L 378,808 L 379,809 L 379,810 L 380,811 L 380,813 L 381,814 L 381,815 L 382,816 L 382,818 L 383,819 L 383,820 L 384,821 L 384,822 L 385,823 L 385,824 L 386,825 L 386,827 L 388,829 L 388,831 L 390,833 L 390,834 L 391,835 L 391,836 L 392,837 L 392,838 L 393,839 L 393,840 L 395,842 L 395,843 L 396,844 L 396,845 L 398,847 L 398,848 L 400,850 L 400,851 L 402,853 L 402,854 L 405,857 L 405,858 L 407,860 L 407,861 L 411,865 L 411,866 L 415,870 L 415,871 L 421,877 L 421,878 L 435,892 L 436,892 L 442,898 L 443,898 L 447,902 L 448,902 L 451,905 L 452,905 L 455,908 L 456,908 L 458,910 L 459,910 L 461,912 L 462,912 L 463,913 L 464,913 L 466,915 L 467,915 L 469,917 L 470,917 L 471,918 L 472,918 L 473,919 L 474,919 L 476,921 L 477,921 L 478,922 L 479,922 L 480,923 L 481,923 L 482,924 L 483,924 L 484,925 L 485,925 L 486,926 L 487,926 L 488,927 L 489,927 L 490,928 L 492,928 L 493,929 L 494,929 L 495,930 L 496,930 L 497,931 L 499,931 L 500,932 L 501,932 L 502,933 L 504,933 L 505,934 L 507,934 L 508,935 L 509,935 L 510,936 L 512,936 L 513,937 L 516,937 L 517,938 L 519,938 L 520,939 L 523,939 L 524,940 L 526,940 L 527,941 L 531,941 L 532,942 L 535,942 L 536,943 L 541,943 L 542,944 L 547,944 L 548,945 L 555,945 L 556,946 L 568,946 L 569,947 L 592,947 L 593,946 L 605,946 L 606,945 L 613,945 L 614,944 L 619,944 L 620,943 L 624,943 L 625,942 L 629,942 L 630,941 L 633,941 L 634,940 L 637,940 L 638,939 L 640,939 L 641,938 L 644,938 L 645,937 L 647,937 L 648,936 L 650,936 L 651,935 L 653,935 L 654,934 L 656,934 L 657,933 L 658,933 L 659,932 L 661,932 L 662,931 L 663,931 L 664,930 L 666,930 L 667,929 L 668,929 L 669,928 L 670,928 L 671,927 L 672,927 L 673,926 L 675,926 L 676,925 L 677,925 L 679,923 L 680,923 L 681,922 L 682,922 L 683,921 L 684,921 L 685,920 L 686,920 L 687,919 L 688,919 L 690,917 L 691,917 L 692,916 L 693,916 L 695,914 L 696,914 L 698,912 L 699,912 L 701,910 L 702,910 L 705,907 L 706,907 L 709,904 L 710,904 L 714,900 L 715,900 L 723,892 L 724,892 L 742,874 L 742,873 L 745,870 L 746,870 L 750,866 L 750,865 L 753,862 L 754,862 L 756,860 L 756,859 L 757,858 L 758,858 L 759,857 L 759,856 L 760,855 L 761,855 L 762,854 L 762,853 L 765,850 L 766,850 L 768,848 L 768,847 L 769,846 L 770,846 L 797,819 L 797,818 L 828,787 L 828,786 L 834,780 L 834,779 L 837,776 L 837,775 L 840,772 L 840,771 L 842,769 L 842,768 L 844,766 L 844,765 L 845,764 L 845,763 L 847,761 L 847,760 L 848,759 L 848,758 L 849,757 L 849,756 L 850,755 L 850,754 L 851,753 L 851,752 L 852,751 L 852,750 L 853,749 L 853,747 L 854,746 L 854,745 L 855,744 L 855,742 L 856,741 L 856,740 L 857,739 L 857,736 L 858,735 L 858,732 L 859,731 L 859,728 L 860,727 L 860,722 L 861,721 L 861,699 L 860,698 L 860,694 L 859,693 L 859,690 L 858,689 L 858,686 L 857,685 L 857,683 L 856,682 L 856,681 L 855,680 L 855,679 L 854,678 L 854,677 L 853,676 L 853,675 L 852,674 L 852,673 L 850,671 L 850,670 L 840,660 L 839,660 L 836,657 L 835,657 L 833,655 L 832,655 L 830,653 L 829,653 L 827,651 L 826,651 L 825,650 L 824,650 L 822,648 L 821,648 L 820,647 L 819,647 L 817,645 L 816,645 L 815,644 L 814,644 L 813,643 L 812,643 L 810,641 L 809,641 L 808,640 L 807,640 L 805,638 L 804,638 L 803,637 L 802,637 L 801,636 L 800,636 L 798,634 L 797,634 L 796,633 L 795,633 L 794,632 L 793,632 L 791,630 L 790,630 L 789,629 L 788,629 L 787,628 L 786,628 L 785,627 L 784,627 L 783,626 L 782,626 L 780,624 L 778,624 L 777,623 L 773,623 L 772,624 L 771,624 L 770,625 L 770,626 L 769,627 L 769,630 L 770,631 L 770,634 L 771,635 L 771,638 L 772,639 L 772,642 L 773,643 L 773,646 L 774,647 L 774,649 L 775,650 L 775,653 L 776,654 L 776,657 L 777,658 L 777,660 L 778,661 L 778,664 L 779,665 L 779,667 L 780,668 L 780,671 L 781,672 L 781,674 L 782,675 L 782,677 L 783,678 L 783,681 L 784,682 L 784,684 L 785,685 L 785,687 L 786,688 L 786,690 L 787,691 L 787,693 L 788,694 L 788,698 L 789,699 L 789,708 L 788,709 L 788,713 L 787,714 L 787,716 L 786,717 L 786,719 L 785,720 L 785,721 L 784,722 L 784,723 L 783,724 L 783,725 L 782,726 L 782,727 L 781,728 L 781,729 L 779,731 L 779,732 L 777,734 L 777,735 L 770,742 L 770,743 L 767,746 L 766,746 L 747,765 L 747,766 L 667,846 L 666,846 L 662,850 L 661,850 L 659,852 L 658,852 L 656,854 L 655,854 L 653,856 L 652,856 L 651,857 L 650,857 L 649,858 L 648,858 L 647,859 L 646,859 L 644,861 L 643,861 L 642,862 L 641,862 L 640,863 L 638,863 L 637,864 L 636,864 L 635,865 L 634,865 L 633,866 L 631,866 L 630,867 L 628,867 L 627,868 L 625,868 L 624,869 L 622,869 L 621,870 L 619,870 L 618,871 L 615,871 L 614,872 L 611,872 L 610,873 L 605,873 L 604,874 L 598,874 L 597,875 L 563,875 L 562,874 L 557,874 L 556,873 L 551,873 L 550,872 L 547,872 L 546,871 L 543,871 L 542,870 L 539,870 L 538,869 L 536,869 L 535,868 L 533,868 L 532,867 L 531,867 L 530,866 L 528,866 L 527,865 L 526,865 L 525,864 L 524,864 L 523,863 L 522,863 L 521,862 L 520,862 L 519,861 L 518,861 L 517,860 L 516,860 L 514,858 L 513,858 L 512,857 L 511,857 L 510,856 L 509,856 L 507,854 L 506,854 L 504,852 L 503,852 L 501,850 L 500,850 L 498,848 L 497,848 L 493,844 L 492,844 L 469,821 L 469,820 L 465,816 L 465,815 L 463,813 L 463,812 L 461,810 L 461,809 L 459,807 L 459,806 L 457,804 L 457,803 L 456,802 L 456,801 L 455,800 L 455,799 L 454,798 L 454,797 L 453,796 L 453,795 L 452,794 L 452,793 L 451,792 L 451,791 L 450,790 L 450,789 L 449,788 L 449,787 L 448,786 L 448,784 L 447,783 L 447,782 L 446,781 L 446,779 L 445,778 L 445,776 L 444,775 L 444,772 L 443,771 L 443,769 L 442,768 L 442,765 L 441,764 L 441,760 L 440,759 L 440,753 L 439,752 L 439,744 L 438,743 L 438,723 L 439,722 L 439,714 L 440,713 L 440,708 L 441,707 L 441,703 L 442,702 L 442,700 L 443,699 L 443,696 L 444,695 L 444,693 L 445,692 L 445,691 L 446,690 L 446,688 L 447,687 L 447,685 L 448,684 L 448,683 L 449,682 L 449,681 L 450,680 L 450,679 L 451,678 L 451,677 L 452,676 L 452,675 L 453,674 L 453,673 L 455,671 L 455,670 L 456,669 L 456,668 L 458,666 L 458,665 L 460,663 L 460,662 L 463,659 L 463,658 L 466,655 L 466,654 L 470,650 L 470,649 L 476,643 L 476,642 L 526,592 L 526,591 L 552,565 L 553,565 L 556,562 L 557,562 L 559,560 L 560,560 L 561,559 L 562,559 L 563,558 L 564,558 L 565,557 L 566,557 L 567,556 L 569,556 L 570,555 L 574,555 L 575,554 L 582,554 L 583,555 L 587,555 L 588,556 L 590,556 L 591,557 L 593,557 L 595,559 L 596,559 L 597,560 L 598,560 L 600,562 L 601,562 L 606,567 L 607,567 L 614,574 L 615,574 L 619,578 L 620,578 L 621,579 L 622,579 L 624,581 L 626,581 L 627,582 L 629,582 L 630,583 L 637,583 L 638,582 L 640,582 L 641,581 L 642,581 L 645,578 L 646,578 L 650,574 L 651,574 L 655,570 L 656,570 L 660,566 L 661,566 L 666,561 L 667,561 L 672,556 L 673,556 L 679,550 L 680,550 L 684,546 L 684,545 L 685,544 L 685,540 L 684,539 L 684,538 L 680,534 L 679,534 L 675,530 L 674,530 L 669,525 L 668,525 L 661,518 L 660,518 L 654,512 L 653,512 L 648,507 L 647,507 L 643,503 L 642,503 L 640,501 L 639,501 L 636,498 L 635,498 L 634,497 L 633,497 L 631,495 L 630,495 L 629,494 L 628,494 L 627,493 L 626,493 L 625,492 L 624,492 L 623,491 L 622,491 L 621,490 L 620,490 L 619,489 L 618,489 L 617,488 L 615,488 L 614,487 L 612,487 L 611,486 L 609,486 L 608,485 L 605,485 L 604,484 L 600,484 L 599,483 L 591,483 L 590,482 Z" fill="black" stroke="none" /><path d="M 820,418 L 819,419 L 817,419 L 816,420 L 815,420 L 809,426 L 809,427 L 805,431 L 805,432 L 802,435 L 802,436 L 798,440 L 798,441 L 794,445 L 794,446 L 791,449 L 791,450 L 787,454 L 787,455 L 783,459 L 783,460 L 780,463 L 780,464 L 776,468 L 776,469 L 772,473 L 772,474 L 768,478 L 768,479 L 766,481 L 766,490 L 767,491 L 767,492 L 769,494 L 769,495 L 770,496 L 771,496 L 773,498 L 774,498 L 775,499 L 776,499 L 777,500 L 784,500 L 785,499 L 786,499 L 788,497 L 789,497 L 792,494 L 792,493 L 795,490 L 795,489 L 799,485 L 799,484 L 803,480 L 803,479 L 807,475 L 807,474 L 811,470 L 811,469 L 814,466 L 814,465 L 818,461 L 818,460 L 821,457 L 821,456 L 825,452 L 825,451 L 828,448 L 828,447 L 832,443 L 832,442 L 834,440 L 834,439 L 835,438 L 835,437 L 836,436 L 836,427 L 835,426 L 835,425 L 833,423 L 833,422 L 832,422 L 830,420 L 829,420 L 828,419 L 827,419 L 826,418 Z" fill="black" stroke="none" /><path d="M 429,390 L 428,391 L 427,391 L 422,396 L 422,397 L 421,398 L 421,401 L 420,402 L 420,406 L 421,407 L 421,409 L 422,410 L 422,411 L 423,412 L 423,413 L 424,414 L 425,414 L 427,416 L 428,416 L 429,417 L 433,417 L 434,418 L 437,418 L 438,419 L 442,419 L 443,420 L 447,420 L 448,421 L 452,421 L 453,422 L 457,422 L 458,423 L 462,423 L 463,424 L 467,424 L 468,425 L 472,425 L 473,426 L 477,426 L 478,427 L 482,427 L 483,428 L 486,428 L 487,429 L 492,429 L 493,430 L 496,430 L 497,431 L 501,431 L 502,432 L 507,432 L 508,433 L 511,433 L 512,434 L 517,434 L 518,435 L 525,435 L 526,434 L 527,434 L 528,433 L 529,433 L 533,429 L 533,428 L 534,427 L 534,425 L 535,424 L 535,420 L 534,419 L 534,416 L 533,415 L 533,414 L 529,410 L 528,410 L 527,409 L 526,409 L 525,408 L 523,408 L 522,407 L 518,407 L 517,406 L 513,406 L 512,405 L 508,405 L 507,404 L 504,404 L 503,403 L 499,403 L 498,402 L 494,402 L 493,401 L 490,401 L 489,400 L 485,400 L 484,399 L 480,399 L 479,398 L 475,398 L 474,397 L 469,397 L 468,396 L 465,396 L 464,395 L 460,395 L 459,394 L 455,394 L 454,393 L 450,393 L 449,392 L 445,392 L 444,391 L 441,391 L 440,390 Z" fill="black" stroke="none" /><path d="M 472,260 L 471,261 L 469,261 L 468,262 L 467,262 L 465,264 L 464,264 L 463,265 L 463,266 L 461,268 L 461,269 L 460,270 L 460,280 L 461,281 L 461,282 L 462,283 L 462,284 L 464,286 L 464,287 L 465,288 L 466,288 L 477,299 L 478,299 L 488,309 L 489,309 L 499,319 L 500,319 L 510,329 L 511,329 L 521,339 L 522,339 L 531,348 L 532,348 L 542,358 L 543,358 L 550,365 L 551,365 L 552,366 L 553,366 L 554,367 L 563,367 L 564,366 L 565,366 L 568,363 L 569,363 L 569,362 L 571,360 L 571,359 L 572,358 L 572,357 L 573,356 L 573,347 L 572,346 L 572,345 L 571,344 L 571,343 L 556,328 L 555,328 L 544,317 L 543,317 L 532,306 L 531,306 L 521,296 L 520,296 L 508,284 L 507,284 L 496,273 L 495,273 L 485,263 L 484,263 L 482,261 L 480,261 L 479,260 Z" fill="black" stroke="none" /><path d="M 595,187 L 594,188 L 592,188 L 591,189 L 590,189 L 586,193 L 586,194 L 585,195 L 585,196 L 584,197 L 584,205 L 585,206 L 585,209 L 586,210 L 586,212 L 587,213 L 587,216 L 588,217 L 588,219 L 589,220 L 589,223 L 590,224 L 590,226 L 591,227 L 591,230 L 592,231 L 592,234 L 593,235 L 593,237 L 594,238 L 594,241 L 595,242 L 595,244 L 596,245 L 596,248 L 597,249 L 597,251 L 598,252 L 598,255 L 599,256 L 599,259 L 600,260 L 600,262 L 601,263 L 601,266 L 602,267 L 602,269 L 603,270 L 603,273 L 604,274 L 604,276 L 605,277 L 605,280 L 606,281 L 606,283 L 607,284 L 607,287 L 608,288 L 608,290 L 609,291 L 609,294 L 610,295 L 610,298 L 611,299 L 611,300 L 612,301 L 612,302 L 616,306 L 617,306 L 618,307 L 620,307 L 621,308 L 627,308 L 628,307 L 630,307 L 632,305 L 633,305 L 634,304 L 634,303 L 636,301 L 636,300 L 637,299 L 637,297 L 638,296 L 638,292 L 637,291 L 637,288 L 636,287 L 636,284 L 635,283 L 635,281 L 634,280 L 634,277 L 633,276 L 633,274 L 632,273 L 632,270 L 631,269 L 631,267 L 630,266 L 630,263 L 629,262 L 629,260 L 628,259 L 628,256 L 627,255 L 627,252 L 626,251 L 626,249 L 625,248 L 625,245 L 624,244 L 624,242 L 623,241 L 623,238 L 622,237 L 622,235 L 621,234 L 621,231 L 620,230 L 620,227 L 619,226 L 619,223 L 618,222 L 618,220 L 617,219 L 617,216 L 616,215 L 616,213 L 615,212 L 615,209 L 614,208 L 614,206 L 613,205 L 613,202 L 612,201 L 612,198 L 611,197 L 611,196 L 610,195 L 610,194 L 609,193 L 609,192 L 607,190 L 606,190 L 605,189 L 604,189 L 603,188 L 601,188 L 600,187 Z" fill="black" stroke="none" /><path d="M 921,127 L 920,128 L 912,128 L 911,129 L 905,129 L 904,130 L 900,130 L 899,131 L 895,131 L 894,132 L 891,132 L 890,133 L 887,133 L 886,134 L 883,134 L 882,135 L 879,135 L 878,136 L 876,136 L 875,137 L 873,137 L 872,138 L 870,138 L 869,139 L 868,139 L 867,140 L 865,140 L 864,141 L 863,141 L 862,142 L 860,142 L 859,143 L 858,143 L 857,144 L 856,144 L 855,145 L 853,145 L 852,146 L 851,146 L 850,147 L 849,147 L 848,148 L 847,148 L 846,149 L 845,149 L 844,150 L 843,150 L 842,151 L 841,151 L 839,153 L 838,153 L 837,154 L 836,154 L 834,156 L 833,156 L 832,157 L 831,157 L 829,159 L 828,159 L 826,161 L 825,161 L 823,163 L 822,163 L 819,166 L 818,166 L 814,170 L 813,170 L 807,176 L 806,176 L 761,221 L 761,222 L 760,223 L 759,223 L 759,224 L 721,262 L 721,263 L 720,264 L 719,264 L 719,265 L 718,266 L 717,266 L 717,267 L 681,303 L 681,304 L 674,311 L 674,312 L 671,315 L 671,316 L 667,320 L 667,321 L 664,324 L 664,325 L 661,328 L 661,329 L 660,330 L 660,331 L 658,333 L 658,334 L 657,335 L 657,336 L 655,338 L 655,339 L 654,340 L 654,341 L 653,342 L 653,343 L 652,344 L 652,345 L 651,346 L 651,347 L 650,348 L 650,350 L 649,351 L 649,352 L 648,353 L 648,355 L 647,356 L 647,358 L 646,359 L 646,361 L 645,362 L 645,364 L 644,365 L 644,368 L 643,369 L 643,373 L 642,374 L 642,379 L 641,380 L 641,404 L 642,405 L 642,410 L 643,411 L 643,414 L 644,415 L 644,417 L 645,418 L 645,420 L 646,421 L 646,423 L 647,424 L 647,425 L 648,426 L 648,427 L 649,428 L 649,429 L 650,430 L 650,431 L 652,433 L 652,434 L 654,436 L 654,437 L 657,440 L 657,441 L 663,447 L 664,447 L 668,451 L 669,451 L 671,453 L 672,453 L 673,454 L 674,454 L 676,456 L 677,456 L 678,457 L 679,457 L 680,458 L 682,458 L 683,459 L 684,459 L 685,460 L 686,460 L 687,461 L 689,461 L 690,462 L 691,462 L 692,463 L 694,463 L 695,464 L 696,464 L 697,465 L 699,465 L 700,466 L 702,466 L 703,467 L 704,467 L 705,468 L 707,468 L 708,469 L 710,469 L 711,470 L 712,470 L 713,471 L 715,471 L 716,472 L 718,472 L 719,473 L 721,473 L 722,474 L 723,474 L 724,475 L 726,475 L 727,476 L 729,476 L 730,477 L 737,477 L 740,474 L 740,469 L 739,468 L 739,466 L 738,465 L 738,463 L 737,462 L 737,460 L 736,459 L 736,458 L 735,457 L 735,455 L 734,454 L 734,452 L 733,451 L 733,449 L 732,448 L 732,447 L 731,446 L 731,444 L 730,443 L 730,441 L 729,440 L 729,439 L 728,438 L 728,436 L 727,435 L 727,433 L 726,432 L 726,431 L 725,430 L 725,428 L 724,427 L 724,425 L 723,424 L 723,423 L 722,422 L 722,420 L 721,419 L 721,417 L 720,416 L 720,414 L 719,413 L 719,411 L 718,410 L 718,408 L 717,407 L 717,405 L 716,404 L 716,401 L 715,400 L 715,385 L 716,384 L 716,381 L 717,380 L 717,378 L 718,377 L 718,376 L 719,375 L 719,373 L 720,372 L 720,371 L 722,369 L 722,368 L 723,367 L 723,366 L 725,364 L 725,363 L 742,346 L 742,345 L 743,344 L 744,344 L 744,343 L 766,321 L 766,320 L 814,272 L 815,272 L 852,235 L 853,235 L 860,228 L 861,228 L 864,225 L 865,225 L 867,223 L 868,223 L 870,221 L 871,221 L 873,219 L 874,219 L 875,218 L 876,218 L 877,217 L 878,217 L 879,216 L 880,216 L 881,215 L 882,215 L 883,214 L 884,214 L 885,213 L 886,213 L 887,212 L 888,212 L 889,211 L 891,211 L 892,210 L 893,210 L 894,209 L 895,209 L 896,208 L 898,208 L 899,207 L 902,207 L 903,206 L 905,206 L 906,205 L 908,205 L 909,204 L 912,204 L 913,203 L 917,203 L 918,202 L 922,202 L 923,201 L 929,201 L 930,200 L 960,200 L 961,201 L 967,201 L 968,202 L 972,202 L 973,203 L 976,203 L 977,204 L 980,204 L 981,205 L 983,205 L 984,206 L 986,206 L 987,207 L 989,207 L 990,208 L 991,208 L 992,209 L 994,209 L 995,210 L 996,210 L 997,211 L 998,211 L 999,212 L 1000,212 L 1001,213 L 1002,213 L 1003,214 L 1004,214 L 1005,215 L 1006,215 L 1007,216 L 1008,216 L 1009,217 L 1010,217 L 1011,218 L 1012,218 L 1014,220 L 1015,220 L 1017,222 L 1018,222 L 1020,224 L 1021,224 L 1024,227 L 1025,227 L 1028,230 L 1029,230 L 1049,250 L 1049,251 L 1052,254 L 1052,255 L 1055,258 L 1055,259 L 1056,260 L 1056,261 L 1058,263 L 1058,264 L 1060,266 L 1060,267 L 1061,268 L 1061,269 L 1062,270 L 1062,271 L 1064,273 L 1064,274 L 1065,275 L 1065,276 L 1066,277 L 1066,278 L 1067,279 L 1067,281 L 1068,282 L 1068,283 L 1069,284 L 1069,285 L 1070,286 L 1070,288 L 1071,289 L 1071,290 L 1072,291 L 1072,294 L 1073,295 L 1073,297 L 1074,298 L 1074,300 L 1075,301 L 1075,304 L 1076,305 L 1076,308 L 1077,309 L 1077,313 L 1078,314 L 1078,320 L 1079,321 L 1079,334 L 1080,335 L 1080,339 L 1079,340 L 1079,353 L 1078,354 L 1078,360 L 1077,361 L 1077,365 L 1076,366 L 1076,369 L 1075,370 L 1075,373 L 1074,374 L 1074,376 L 1073,377 L 1073,379 L 1072,380 L 1072,382 L 1071,383 L 1071,384 L 1070,385 L 1070,387 L 1069,388 L 1069,389 L 1068,390 L 1068,391 L 1067,392 L 1067,393 L 1066,394 L 1066,395 L 1065,396 L 1065,397 L 1064,398 L 1064,399 L 1063,400 L 1063,401 L 1062,402 L 1062,403 L 1060,405 L 1060,406 L 1058,408 L 1058,409 L 1056,411 L 1056,412 L 1052,416 L 1052,417 L 1035,434 L 1035,435 L 999,471 L 999,472 L 998,473 L 997,473 L 997,474 L 992,479 L 991,479 L 991,480 L 950,521 L 950,522 L 949,523 L 948,523 L 948,524 L 934,538 L 933,538 L 923,548 L 922,548 L 920,550 L 919,550 L 918,551 L 917,551 L 915,553 L 913,553 L 912,554 L 910,554 L 909,555 L 906,555 L 905,556 L 895,556 L 894,555 L 891,555 L 890,554 L 888,554 L 887,553 L 886,553 L 885,552 L 884,552 L 883,551 L 882,551 L 881,550 L 880,550 L 876,546 L 875,546 L 871,542 L 870,542 L 865,537 L 864,537 L 860,533 L 859,533 L 857,531 L 856,531 L 855,530 L 854,530 L 852,528 L 851,528 L 850,527 L 849,527 L 848,526 L 846,526 L 845,525 L 843,525 L 842,524 L 840,524 L 839,523 L 833,523 L 832,522 L 827,522 L 826,523 L 820,523 L 819,524 L 817,524 L 816,525 L 814,525 L 813,526 L 812,526 L 811,527 L 810,527 L 809,528 L 808,528 L 807,529 L 806,529 L 802,533 L 801,533 L 801,534 L 797,538 L 797,539 L 796,540 L 796,541 L 795,542 L 795,543 L 794,544 L 794,546 L 793,547 L 793,550 L 792,551 L 792,561 L 793,562 L 793,565 L 794,566 L 794,568 L 795,569 L 795,570 L 797,572 L 797,573 L 801,577 L 801,578 L 812,589 L 813,589 L 818,594 L 819,594 L 822,597 L 823,597 L 825,599 L 826,599 L 828,601 L 829,601 L 831,603 L 832,603 L 834,605 L 835,605 L 837,607 L 838,607 L 839,608 L 840,608 L 841,609 L 842,609 L 844,611 L 845,611 L 846,612 L 847,612 L 848,613 L 849,613 L 850,614 L 851,614 L 852,615 L 853,615 L 854,616 L 855,616 L 856,617 L 857,617 L 858,618 L 860,618 L 861,619 L 862,619 L 863,620 L 865,620 L 866,621 L 868,621 L 869,622 L 871,622 L 872,623 L 874,623 L 875,624 L 878,624 L 879,625 L 883,625 L 884,626 L 894,626 L 895,627 L 905,627 L 906,626 L 915,626 L 916,625 L 922,625 L 923,624 L 927,624 L 928,623 L 930,623 L 931,622 L 934,622 L 935,621 L 937,621 L 938,620 L 940,620 L 941,619 L 942,619 L 943,618 L 945,618 L 946,617 L 947,617 L 948,616 L 949,616 L 950,615 L 951,615 L 952,614 L 953,614 L 954,613 L 955,613 L 957,611 L 958,611 L 959,610 L 960,610 L 962,608 L 963,608 L 965,606 L 966,606 L 970,602 L 971,602 L 975,598 L 976,598 L 983,591 L 984,591 L 1017,558 L 1017,557 L 1055,519 L 1055,518 L 1060,513 L 1061,513 L 1061,512 L 1062,511 L 1063,511 L 1063,510 L 1100,473 L 1100,472 L 1107,465 L 1107,464 L 1110,461 L 1110,460 L 1112,458 L 1112,457 L 1115,454 L 1115,453 L 1117,451 L 1117,450 L 1119,448 L 1119,447 L 1120,446 L 1120,445 L 1122,443 L 1122,442 L 1123,441 L 1123,440 L 1125,438 L 1125,437 L 1126,436 L 1126,435 L 1127,434 L 1127,433 L 1128,432 L 1128,431 L 1129,430 L 1129,429 L 1130,428 L 1130,427 L 1131,426 L 1131,425 L 1132,424 L 1132,423 L 1133,422 L 1133,420 L 1134,419 L 1134,418 L 1135,417 L 1135,415 L 1136,414 L 1136,413 L 1137,412 L 1137,410 L 1138,409 L 1138,407 L 1139,406 L 1139,404 L 1140,403 L 1140,401 L 1141,400 L 1141,398 L 1142,397 L 1142,394 L 1143,393 L 1143,391 L 1144,390 L 1144,387 L 1145,386 L 1145,383 L 1146,382 L 1146,378 L 1147,377 L 1147,373 L 1148,372 L 1148,366 L 1149,365 L 1149,358 L 1150,357 L 1150,342 L 1151,341 L 1151,322 L 1150,321 L 1150,309 L 1149,308 L 1149,303 L 1148,302 L 1148,298 L 1147,297 L 1147,293 L 1146,292 L 1146,288 L 1145,287 L 1145,283 L 1144,282 L 1144,279 L 1143,278 L 1143,276 L 1142,275 L 1142,273 L 1141,272 L 1141,270 L 1140,269 L 1140,267 L 1139,266 L 1139,264 L 1138,263 L 1138,261 L 1137,260 L 1137,258 L 1136,257 L 1136,256 L 1135,255 L 1135,254 L 1134,253 L 1134,251 L 1133,250 L 1133,249 L 1132,248 L 1132,247 L 1131,246 L 1131,245 L 1130,244 L 1130,243 L 1129,242 L 1129,241 L 1128,240 L 1128,238 L 1126,236 L 1126,235 L 1125,234 L 1125,233 L 1124,232 L 1124,231 L 1123,230 L 1123,229 L 1121,227 L 1121,226 L 1120,225 L 1120,224 L 1118,222 L 1118,221 L 1116,219 L 1116,218 L 1114,216 L 1114,215 L 1112,213 L 1112,212 L 1109,209 L 1109,208 L 1106,205 L 1106,204 L 1102,200 L 1102,199 L 1095,192 L 1095,191 L 1088,184 L 1087,184 L 1086,183 L 1086,182 L 1085,182 L 1077,174 L 1076,174 L 1072,170 L 1071,170 L 1067,166 L 1066,166 L 1064,164 L 1063,164 L 1061,162 L 1060,162 L 1058,160 L 1057,160 L 1055,158 L 1054,158 L 1052,156 L 1051,156 L 1049,154 L 1048,154 L 1047,153 L 1046,153 L 1045,152 L 1044,152 L 1043,151 L 1042,151 L 1041,150 L 1040,150 L 1038,148 L 1036,148 L 1035,147 L 1034,147 L 1033,146 L 1032,146 L 1031,145 L 1030,145 L 1029,144 L 1028,144 L 1027,143 L 1025,143 L 1024,142 L 1023,142 L 1022,141 L 1020,141 L 1019,140 L 1017,140 L 1016,139 L 1015,139 L 1014,138 L 1012,138 L 1011,137 L 1009,137 L 1008,136 L 1005,136 L 1004,135 L 1002,135 L 1001,134 L 998,134 L 997,133 L 994,133 L 993,132 L 989,132 L 988,131 L 984,131 L 983,130 L 978,130 L 977,129 L 971,129 L 970,128 L 960,128 L 959,127 Z" fill="black" stroke="none" /></svg>